PathFileType	4	(X/Y/Z)	/Users/itak/Documents/Research/Walk-IL/dataset/trc/00546_00009.trc
DataRate	CameraRate	NumFrames	NumMarkers	Units	OrigDataRate	OrigDataStartFrame	OrigNumFrames
100.000000	100.000000	4	53	mm	100.000000	127	508
Frame#	Time	RPSI			LPSI			L3			STRN			T10			C7			CLAV			RBAK			LBAK			LSHO			LUPA			LAEL			LAOL			LWTS			LWPS			LFRA			LIFD			LHPS			LHTS			RSHO			RUPA			RAEL			RAOL			RWTS			RWPS			RFRA			RIFD			RHTS			RHPS			RBHD			LFHD			RFHD			LBHD			LHIP			RHIP			RASI			LASI			LKNE			LTHI			LANK			LTIP			LTOE			LMT1			LMT5			LHEE			RKNE			RTHI			RANK			RTIP			RTOE			RMT1			RMT5			RHEE			
		X1	Y1	Z1	X2	Y2	Z2	X3	Y3	Z3	X4	Y4	Z4	X5	Y5	Z5	X6	Y6	Z6	X7	Y7	Z7	X8	Y8	Z8	X9	Y9	Z9	X10	Y10	Z10	X11	Y11	Z11	X12	Y12	Z12	X13	Y13	Z13	X14	Y14	Z14	X15	Y15	Z15	X16	Y16	Z16	X17	Y17	Z17	X18	Y18	Z18	X19	Y19	Z19	X20	Y20	Z20	X21	Y21	Z21	X22	Y22	Z22	X23	Y23	Z23	X24	Y24	Z24	X25	Y25	Z25	X26	Y26	Z26	X27	Y27	Z27	X28	Y28	Z28	X29	Y29	Z29	X30	Y30	Z30	X31	Y31	Z31	X32	Y32	Z32	X33	Y33	Z33	X34	Y34	Z34	X35	Y35	Z35	X36	Y36	Z36	X37	Y37	Z37	X38	Y38	Z38	X39	Y39	Z39	X40	Y40	Z40	X41	Y41	Z41	X42	Y42	Z42	X43	Y43	Z43	X44	Y44	Z44	X45	Y45	Z45	X46	Y46	Z46	X47	Y47	Z47	X48	Y48	Z48	X49	Y49	Z49	X50	Y50	Z50	X51	Y51	Z51	X52	Y52	Z52	X53	Y53	Z53	

128	1.27	-637.2274169921875	1016.971740722656	353.9175109863281	-633.6358032226562	1016.771545410156	219.5350036621094	-630.2147827148438	1112.158813476562	276.9282836914062	-393.3458557128906	1289.239135742188	271.5384826660156	-635.7156372070312	1236.776611328125	269.7422790527344	-576.3179931640625	1509.588012695312	275.3067932128906	-407.0903015136719	1401.38134765625	270.9802551269531	-655.6359252929688	1388.941650390625	362.263427734375	-611.3738403320312	1455.582153320312	184.4241790771484	-509.9164123535156	1473.8857421875	105.3856964111328	-518.9602661132812	1347.816772460938	25.4274730682373	-495.9259033203125	1124.143920898438	8.808141708374023	-589.0919799804688	1117.085571289062	48.48023986816406	-406.0954895019531	884.3214111328125	74.95441436767578	-439.6834411621094	858.314697265625	-1.168615341186523	-471.5557250976562	1037.923095703125	7.63506031036377	-403.3037719726562	714.6394653320312	76.40262603759766	-430.4027404785156	799.2864990234375	9.745696067810059	-384.5827026367188	807.5323486328125	60.19603729248047	-523.1666870117188	1473.7421875	432.2633666992188	-547.1491088867188	1412.226806640625	501.0238037109375	-569.9308471679688	1125.641235351562	556.128662109375	-624.2470703125	1109.63232421875	527.98876953125	-441.481201171875	900.98828125	525.2909545898438	-488.8712158203125	883.0841674804688	591.6427001953125	-559.8304443359375	1071.29248046875	566.5839233398438	-433.8097534179688	727.8374633789062	535.5847778320312	-416.1513061523438	809.5452270507812	543.6713256835938	-473.0700988769531	808.4214477539062	591.3612060546875	-497.8433837890625	1686.89990234375	338.0943298339844	-335.4207763671875	1701.197509765625	209.3680572509766	-358.782470703125	1701.65380859375	351.8230895996094	-464.1253662109375	1684.315551757812	175.6437377929688	-510.4041442871094	930.1762084960938	88.6983642578125	-508.5116882324219	948.9268798828125	475.0944213867188	-425.7465209960938	976.80908203125	412.6781616210938	-431.7145080566406	954.4708862304688	137.58251953125	-520.0489501953125	487.4841613769531	171.2935943603516	-504.8121337890625	649.780029296875	125.1952285766602	-621.3306274414062	31.21957397460938	211.3732452392578	-597.3211669921875	246.1524200439453	185.8601226806641	-410.6517333984375	39.96083831787109	264.9469604492188	-481.4207458496094	42.26818466186523	302.3558959960938	-498.5877685546875	34.77778625488281	195.1522064208984	-689.6334228515625	35.55460357666016	268.4726257324219	-400.60400390625	512.804931640625	443.5379638671875	-445.3349914550781	800.41357421875	475.1258544921875	-580.9581909179688	63.90069198608398	448.3201293945312	-423.259033203125	364.7640075683594	438.7616882324219	-364.0948486328125	55.55908966064453	414.2612915039062	-425.3654479980469	54.73036193847656	371.0137329101562	-451.4299926757812	53.23556518554688	472.2778015136719	-635.1054077148438	62.93137359619141	391.5258483886719	
129	1.28	-635.6947631835938	1017.060485839844	353.7751159667969	-632.3435668945312	1016.698913574219	219.3424224853516	-628.7915649414062	1112.292236328125	276.5524597167969	-391.6422119140625	1289.133544921875	271.0394897460938	-634.11279296875	1236.875610351562	269.1886291503906	-574.4381103515625	1509.618530273438	274.7371520996094	-405.2532653808594	1401.358154296875	270.5077514648438	-653.872802734375	1389.05029296875	361.6469421386719	-609.4677124023438	1455.656127929688	183.8103942871094	-507.9562683105469	1473.915161132812	104.8507690429688	-516.9080810546875	1347.89794921875	24.85937690734863	-493.7102661132812	1124.2119140625	8.290312767028809	-586.99462890625	1117.075317382812	47.69118118286133	-403.6064147949219	884.6453857421875	74.94814300537109	-436.8432006835938	858.5542602539062	-1.286588072776794	-469.1726684570312	1038.070556640625	7.2593994140625	-400.4890441894531	714.9580688476562	76.56468963623047	-427.5126342773438	799.5101318359375	9.684330940246582	-381.8890686035156	807.8751220703125	60.34975051879883	-521.4202880859375	1473.77099609375	431.7367248535156	-545.5404663085938	1412.331176757812	500.494384765625	-568.9291381835938	1125.817749023438	555.6817016601562	-623.3091430664062	1109.919189453125	527.4945068359375	-440.9691467285156	900.8983154296875	525.3796997070312	-488.3984069824219	883.185791015625	591.5361328125	-558.9666137695312	1071.475341796875	566.1268310546875	-433.4501647949219	727.7963256835938	535.71533203125	-415.7088317871094	809.49462890625	543.8096313476562	-472.6978759765625	808.4683227539062	591.3131103515625	-495.6697998046875	1686.887329101562	337.6099243164062	-333.5614929199219	1701.035766601562	208.4815826416016	-356.5568237304688	1701.580932617188	350.9755554199219	-462.3461608886719	1684.217163085938	175.0891265869141	-510.4935913085938	930.3387451171875	87.77970123291016	-506.2462768554688	949.3950805664062	474.4773559570312	-424.0491638183594	977.1064453125	411.776611328125	-430.6195373535156	954.3038940429688	136.7554473876953	-519.29296875	487.2979736328125	171.0691223144531	-504.002685546875	649.5380859375	124.8260116577148	-621.3340454101562	31.25485610961914	211.4159088134766	-597.0318603515625	246.1605682373047	185.8536987304688	-410.6480712890625	39.95462036132812	264.9376525878906	-481.4273071289062	42.25942993164062	302.3320617675781	-498.569091796875	34.79389190673828	195.1168670654297	-689.6484985351562	35.58808898925781	268.5207824707031	-395.8513793945312	513.84033203125	442.7867431640625	-442.5619201660156	801.1234130859375	474.625244140625	-572.239990234375	63.33562850952148	447.8711547851562	-417.2661437988281	365.641357421875	438.0241088867188	-355.4692077636719	56.55743789672852	412.8436889648438	-416.9030151367188	55.40468978881836	369.8310241699219	-442.5279541015625	53.47274017333984	471.2307434082031	-626.5897216796875	62.08707046508789	391.2743835449219	
130	1.29	-634.086669921875	1017.166931152344	353.6415405273438	-630.9827880859375	1016.641662597656	219.1712188720703	-627.2952880859375	1112.418701171875	276.1959533691406	-389.8390197753906	1289.020263671875	270.5401000976562	-632.42236328125	1236.972045898438	268.6632690429688	-572.4613037109375	1509.6435546875	274.2057189941406	-403.3323059082031	1401.323120117188	270.05078125	-652.0012817382812	1389.155395507812	361.0783996582031	-607.4830322265625	1455.729736328125	183.2374114990234	-505.9216918945312	1473.958984375	104.34619140625	-514.80517578125	1347.9931640625	24.31650924682617	-491.4524536132812	1124.293090820312	7.816158771514893	-584.857666015625	1117.087646484375	46.9637336730957	-401.0165100097656	885.0322265625	75.00916290283203	-433.924072265625	858.8262329101562	-1.316176891326904	-466.7503356933594	1038.24072265625	6.931924343109131	-397.5204467773438	715.3255615234375	76.84292602539062	-424.5217895507812	799.7607421875	9.723141670227051	-379.0853271484375	808.27490234375	60.57698440551758	-519.5494384765625	1473.775268554688	431.2456970214844	-543.798583984375	1412.418334960938	499.9949645996094	-567.8399658203125	1125.990234375	555.2727661132812	-622.2677001953125	1110.197509765625	527.0380249023438	-440.4452819824219	900.7386474609375	525.4757690429688	-487.8800048828125	883.2383422851562	591.4393310546875	-557.9976196289062	1071.6552734375	565.69384765625	-433.1322631835938	727.6871337890625	535.8482666015625	-415.2733764648438	809.3683471679688	543.9366455078125	-472.3326110839844	808.4691162109375	591.3001708984375	-493.4328308105469	1686.854248046875	337.1825256347656	-331.6386108398438	1700.901611328125	207.6494598388672	-354.2711486816406	1701.502319335938	350.1843872070312	-460.5013427734375	1684.128051757812	174.5926513671875	-510.8551330566406	930.7359619140625	86.69588470458984	-504.0458679199219	949.843505859375	473.9443664550781	-422.2890014648438	977.3980712890625	410.916748046875	-429.4571228027344	954.1111450195312	135.9807281494141	-518.5140380859375	487.1062927246094	170.8553009033203	-503.1720886230469	649.3015747070312	124.4625396728516	-621.33740234375	31.28798294067383	211.4562835693359	-596.7249755859375	246.145263671875	185.836181640625	-410.64013671875	39.95088195800781	264.9246826171875	-481.4346313476562	42.25242614746094	302.3078308105469	-498.5331115722656	34.81532287597656	195.0687103271484	-689.6640014648438	35.62257385253906	268.5726928710938	-391.1852722167969	514.8672485351562	442.0103454589844	-439.7940063476562	801.8137817382812	474.1287536621094	-562.8524780273438	62.50934982299805	447.4556884765625	-411.152099609375	366.5144653320312	437.2960205078125	-346.1648559570312	57.52097702026367	411.5849914550781	-407.7276611328125	55.97808837890625	368.771240234375	-432.9731750488281	53.60906600952148	470.2937316894531	-617.3583374023438	60.91285705566406	391.0248718261719	
131	1.3	-632.4067993164062	1017.275939941406	353.49951171875	-629.5509643554688	1016.592712402344	219.0069274902344	-625.728515625	1112.533813476562	275.8507385253906	-387.9349975585938	1288.895385742188	270.0418701171875	-630.6445922851562	1237.062133789062	268.1667785644531	-570.384033203125	1509.660766601562	273.7089538574219	-401.3228149414062	1401.26806640625	269.61083984375	-650.02392578125	1389.256469726562	360.5552673339844	-605.4163208007812	1455.798583984375	182.7028198242188	-503.8058776855469	1474.004638671875	103.8709564208984	-512.6491088867188	1348.09033203125	23.79550552368164	-489.16015625	1124.379760742188	7.379239559173584	-582.6870727539062	1117.115112304688	46.28825759887695	-398.3229370117188	885.4778442382812	75.13677978515625	-430.9288330078125	859.1151123046875	-1.254876852035522	-464.2944641113281	1038.4228515625	6.647918224334717	-394.3930053710938	715.74365234375	77.23365783691406	-421.4232177734375	800.0309448242188	9.870691299438477	-376.1677551269531	808.7334594726562	60.87236785888672	-517.5518798828125	1473.759521484375	430.7842712402344	-541.9239501953125	1412.48388671875	499.5243530273438	-566.6586303710938	1126.153198242188	554.8965454101562	-621.1148071289062	1110.4599609375	526.6134643554688	-439.886962890625	900.5116577148438	525.564697265625	-487.3135986328125	883.236328125	591.3538208007812	-556.9253540039062	1071.824829101562	565.2930297851562	-432.8480224609375	727.5040893554688	535.980224609375	-414.8414306640625	809.1597900390625	544.0486450195312	-471.9599609375	808.4163818359375	591.3153686523438	-491.1311340332031	1686.793334960938	336.8097229003906	-329.6468200683594	1700.7890625	206.8737335205078	-351.9266662597656	1701.406616210938	349.4597778320312	-458.5854187011719	1684.042724609375	174.1515350341797	-511.3553466796875	931.2938842773438	85.50635528564453	-501.9219055175781	950.2536010742188	473.4871826171875	-420.4698486328125	977.677490234375	410.1071166992188	-428.2207946777344	953.8953857421875	135.2642974853516	-517.7115478515625	486.9103698730469	170.65185546875	-502.31982421875	649.079345703125	124.1111145019531	-621.3408813476562	31.31885719299316	211.494384765625	-596.3875732421875	246.1076507568359	185.8035430908203	-410.628173828125	39.94958877563477	264.9076843261719	-481.4411926269531	42.24494934082031	302.2862243652344	-498.4874267578125	34.83835220336914	195.0149993896484	-689.6797485351562	35.65556335449219	268.626220703125	-386.5842590332031	515.8817138671875	441.2145385742188	-437.033203125	802.4776611328125	473.6389770507812	-552.8388061523438	61.46601486206055	447.0704956054688	-404.9190673828125	367.38232421875	436.5807800292969	-336.2393798828125	58.51666259765625	410.492919921875	-397.8871765136719	56.50838088989258	367.8408203125	-422.8236083984375	53.70811080932617	469.4746704101562	-607.46435546875	59.45004272460938	390.7838745117188	
